<svg xmlns="http://www.w3.org/2000/svg" viewBox="0 0 96 120" x="0px" y="0px"><title>part 1</title><path d="M48,8A40,40,0,1,0,88,48,40,40,0,0,0,48,8Zm0,72A32,32,0,1,1,80,48,32,32,0,0,1,48,80Z"/><path d="M48,28a4,4,0,0,0-4,4V52a4,4,0,0,0,8,0V32A4,4,0,0,0,48,28Z"/><circle cx="48" cy="64" r="4"/><text x="0" y="111" fill="#000000" font-size="5px" font-weight="bold" font-family="'Helvetica Neue', Helvetica, Arial-Unicode, Arial, Sans-serif">Created by ghayn</text><text x="0" y="116" fill="#000000" font-size="5px" font-weight="bold" font-family="'Helvetica Neue', Helvetica, Arial-Unicode, Arial, Sans-serif">from the Noun Project</text></svg>